<svg width="23" height="25" viewBox="0 0 23 25" fill="none" xmlns="http://www.w3.org/2000/svg">
  <path d="M2.52421 21.7299H4.32271L16.6598 8.4543L14.8613 6.51898L2.52421 19.7946V21.7299ZM0 24.4462V18.6742L16.6598 0.780919C16.9122 0.53193 17.1909 0.33953 17.4959 0.203718C17.8009 0.067906 18.1217 0 18.4583 0C18.7948 0 19.1209 0.067906 19.4364 0.203718C19.7519 0.33953 20.0254 0.543248 20.2568 0.814872L21.9922 2.71624C22.2446 2.96523 22.4287 3.25949 22.5443 3.59902C22.66 3.93855 22.7179 4.27808 22.7179 4.61761C22.7179 4.97978 22.66 5.32496 22.5443 5.65318C22.4287 5.98139 22.2446 6.28131 21.9922 6.55293L5.36394 24.4462H0ZM15.7448 7.50362L14.8613 6.51898L16.6598 8.4543L15.7448 7.50362Z" fill="#538C38" />
</svg>
