<svg width="24" height="24" viewBox="0 0 24 24" fill="none" xmlns="http://www.w3.org/2000/svg">
<path d="M22.2061 6.48422C22.4326 6.11572 22.6866 5.68772 22.9026 5.34722C23.0961 5.02122 22.9921 4.60022 22.6691 4.40122L18.1406 1.61922C17.8216 1.40472 17.3886 1.48872 17.1736 1.80772C17.1646 1.82122 17.1561 1.83472 17.1481 1.84872C16.9671 2.15122 16.7336 2.54422 16.4791 2.96522C14.6851 5.92122 12.8806 5.55972 9.62764 4.00872L5.15164 1.88722C4.80414 1.72222 4.38864 1.86972 4.22314 2.21622C4.22064 2.22222 4.21764 2.22822 4.21464 2.23472L2.05864 7.10372C1.90614 7.45122 2.06114 7.85672 2.40714 8.01472C3.35464 8.45972 5.23914 9.34672 6.93564 10.1642C13.0521 13.1197 18.2386 12.9217 22.2061 6.48422Z" fill="#2684FF"/>
<path d="M1.79378 18.0161C1.56728 18.3846 1.31328 18.8126 1.09728 19.1531C0.903783 19.4791 1.00778 19.9001 1.33078 20.0991L5.85928 22.8811C6.17828 23.0956 6.61128 23.0116 6.82628 22.6926C6.83528 22.6791 6.84378 22.6656 6.85178 22.6516C7.03278 22.3491 7.26628 21.9561 7.52078 21.5351C9.31478 18.5791 11.1193 18.9406 14.3723 20.4916L18.8483 22.6131C19.1958 22.7781 19.6113 22.6306 19.7768 22.2841C19.7798 22.2781 19.7828 22.2716 19.7853 22.2656L21.9413 17.3966C22.0938 17.0491 21.9388 16.6436 21.5928 16.4856C20.6453 16.0406 18.7608 15.1536 17.0643 14.3361C10.9478 11.3806 5.76128 11.5786 1.79378 18.0161Z" fill="#2684FF"/>
</svg>
