<svg width="25" height="20" viewBox="0 0 25 20" fill="none" xmlns="http://www.w3.org/2000/svg">
  <path d="M3.34727 20C2.68727 20 2.12227 19.7552 1.65227 19.2656C1.18227 18.776 0.947266 18.1875 0.947266 17.5V2.5C0.947266 1.8125 1.18227 1.22396 1.65227 0.734375C2.12227 0.244792 2.68727 0 3.34727 0H10.5473L12.9473 2.5H22.5473C23.2073 2.5 23.7723 2.74479 24.2423 3.23438C24.7123 3.72396 24.9473 4.3125 24.9473 5V17.5C24.9473 18.1875 24.7123 18.776 24.2423 19.2656C23.7723 19.7552 23.2073 20 22.5473 20H3.34727ZM3.34727 17.5H22.5473V5H11.9573L9.55727 2.5H3.34727V17.5Z" fill="#538C38" />
</svg>
