<svg width="16" height="16" viewBox="0 0 16 16" fill="none" xmlns="http://www.w3.org/2000/svg">
<path fill-rule="evenodd" clip-rule="evenodd" d="M7.79916 6.16029C9.16465 6.67231 10.2838 7.8889 10.3413 9.39631C10.423 11.551 8.15875 13.203 6.33788 14.9556C5.62417 15.6248 4.64701 16.0059 3.6548 15.9999C0.809212 15.9483 -1.3473 12.1273 0.998759 9.75709C2.34098 8.4339 3.60246 6.77092 5.08085 6.15396C5.19615 6.10566 5.31385 6.06469 5.43257 6.03037C5.43804 6.45778 5.475 7.00244 5.60193 7.4565C5.36243 7.55078 5.13799 7.68636 4.94057 7.86692C3.41051 9.30303 1.20781 10.6829 1.34672 12.4944C1.43465 13.644 2.50829 14.6304 3.7311 14.6231C4.33224 14.6121 4.91799 14.3753 5.35011 13.9702C7.09059 12.2949 9.62209 10.5676 8.72705 8.6018C8.55085 8.2147 8.25284 7.90223 7.89051 7.68003C7.79506 7.27728 7.715 6.72195 7.79916 6.16029ZM8.20084 9.83971C6.83535 9.32769 5.71621 8.1111 5.65873 6.60336C5.57695 4.44901 7.84125 2.79702 9.66212 1.0441C10.3758 0.375173 11.353 -0.00592661 12.3452 6.97109e-05C15.1908 0.0513716 17.3473 3.87236 15.0012 6.24258C13.659 7.56577 12.3975 9.22875 10.9192 9.8457C10.8038 9.89401 10.6862 9.93498 10.5674 9.96929C10.562 9.54189 10.525 8.99722 10.3981 8.5435C10.6376 8.44922 10.862 8.31331 11.0594 8.13275C12.5895 6.69663 14.7922 5.31681 14.6533 3.50525C14.5654 2.35596 13.4917 1.36923 12.2689 1.37689C11.6678 1.38755 11.082 1.62474 10.6499 2.02983C8.90941 3.7048 6.37791 5.43207 7.27295 7.39787C7.44915 7.7853 7.74716 8.09744 8.10948 8.31997C8.20494 8.72239 8.285 9.27805 8.20084 9.83971Z" fill="#538C38"/>
</svg>
