<svg id="link" width="20" height="22" viewBox="0 0 20 22" fill="none" xmlns="http://www.w3.org/2000/svg">
  <path fill-rule="evenodd" clip-rule="evenodd" d="M10.1958 8.42038C11.8218 9.0765 13.1546 10.6355 13.223 12.5671C13.3204 15.3282 10.624 17.4451 8.4556 19.6909C7.60569 20.5486 6.44205 21.0369 5.26049 21.0292C1.87185 20.9631 -0.696221 16.0667 2.09756 13.0294C3.69593 11.3339 5.19815 9.20285 6.95868 8.41227C7.09599 8.35037 7.23614 8.29786 7.37752 8.25389C7.38404 8.80158 7.42805 9.49954 7.5792 10.0814C7.294 10.2022 7.02672 10.3759 6.79163 10.6073C4.96958 12.4476 2.34651 14.2157 2.51193 16.5371C2.61664 18.0103 3.89517 19.2743 5.35135 19.2649C6.06721 19.2508 6.76474 18.9473 7.27933 18.4282C9.35196 16.2814 12.3666 14.068 11.3007 11.549C11.0909 11.053 10.736 10.6525 10.3045 10.3678C10.1909 9.85172 10.0955 9.1401 10.1958 8.42038ZM10.6741 13.1353C9.04801 12.4792 7.71529 10.9202 7.64684 8.98813C7.54946 6.22748 10.2459 4.11057 12.4142 1.86431C13.2642 1.00713 14.4278 0.518773 15.6094 0.526457C18.998 0.592197 21.5661 5.48854 18.7723 8.52582C17.1739 10.2214 15.6717 12.3524 13.9112 13.143C13.7739 13.2049 13.6337 13.2574 13.4923 13.3014C13.4858 12.7537 13.4418 12.0557 13.2906 11.4743C13.5758 11.3535 13.8431 11.1793 14.0782 10.948C15.9003 9.10766 18.5233 7.33951 18.3579 5.01812C18.2532 3.54537 16.9747 2.28095 15.5185 2.29076C14.8026 2.30442 14.1051 2.60837 13.5905 3.12745C11.5179 5.27382 8.50327 7.48721 9.56912 10.0062C9.77895 10.5027 10.1338 10.9027 10.5653 11.1879C10.679 11.7035 10.7743 12.4156 10.6741 13.1353Z" fill="#538C38" />
</svg>
