<svg id="pen" width="20" height="21" viewBox="0 0 20 21" fill="none" xmlns="http://www.w3.org/2000/svg">
  <path d="M3.06431 18.4455H4.57271L14.9198 7.3113L13.4114 5.68816L3.06431 16.8224V18.4455ZM0.947266 20.7236V15.8827L14.9198 0.875658C15.1315 0.666832 15.3652 0.505466 15.6211 0.391561C15.8769 0.277656 16.1459 0.220703 16.4282 0.220703C16.7105 0.220703 16.9839 0.277656 17.2485 0.391561C17.5132 0.505466 17.7425 0.676324 17.9366 0.904135L19.392 2.49881C19.6038 2.70763 19.7581 2.95443 19.8552 3.23919C19.9522 3.52396 20.0007 3.80872 20.0007 4.09348C20.0007 4.39723 19.9522 4.68674 19.8552 4.96201C19.7581 5.23728 19.6038 5.48882 19.392 5.71663L5.44599 20.7236H0.947266ZM14.1524 6.51397L13.4114 5.68816L14.9198 7.3113L14.1524 6.51397Z" fill="#538C38" />
</svg>
