<svg width="16" height="18" viewBox="0 0 16 18" fill="none" xmlns="http://www.w3.org/2000/svg">
<path d="M1.77778 15.3042H3.04444L11.7333 5.95429L10.4667 4.59126L1.77778 13.9412V15.3042ZM0 17.2172V13.152L11.7333 0.549994C11.9111 0.374634 12.1074 0.239128 12.3222 0.143477C12.537 0.0478256 12.763 0 13 0C13.237 0 13.4667 0.0478256 13.6889 0.143477C13.9111 0.239128 14.1037 0.382605 14.2667 0.573907L15.4889 1.91302C15.6667 2.08838 15.7963 2.29563 15.8778 2.53476C15.9593 2.77389 16 3.01301 16 3.25214C16 3.50721 15.9593 3.75032 15.8778 3.98148C15.7963 4.21264 15.6667 4.42387 15.4889 4.61517L3.77778 17.2172H0ZM11.0889 5.28473L10.4667 4.59126L11.7333 5.95429L11.0889 5.28473Z" fill="#538C38"/>
</svg>
