<svg id="responsible" width="16" height="16" viewBox="0 0 16 16" fill="none" xmlns="http://www.w3.org/2000/svg">
<path d="M8 7.99997C6.9 7.99997 5.95833 7.6083 5.175 6.82497C4.39167 6.04164 4 5.09997 4 3.99997C4 2.89997 4.39167 1.9583 5.175 1.17497C5.95833 0.391636 6.9 -3.05176e-05 8 -3.05176e-05C9.1 -3.05176e-05 10.0417 0.391636 10.825 1.17497C11.6083 1.9583 12 2.89997 12 3.99997C12 5.09997 11.6083 6.04164 10.825 6.82497C10.0417 7.6083 9.1 7.99997 8 7.99997ZM0 16V13.2C0 12.6333 0.145833 12.1125 0.4375 11.6375C0.729167 11.1625 1.11667 10.8 1.6 10.55C2.63333 10.0333 3.68333 9.6458 4.75 9.38747C5.81667 9.12914 6.9 8.99997 8 8.99997C9.1 8.99997 10.1833 9.12914 11.25 9.38747C12.3167 9.6458 13.3667 10.0333 14.4 10.55C14.8833 10.8 15.2708 11.1625 15.5625 11.6375C15.8542 12.1125 16 12.6333 16 13.2V16H0ZM2 14H14V13.2C14 13.0166 13.9542 12.85 13.8625 12.7C13.7708 12.55 13.65 12.4333 13.5 12.35C12.6 11.9 11.6917 11.5625 10.775 11.3375C9.85833 11.1125 8.93333 11 8 11C7.06667 11 6.14167 11.1125 5.225 11.3375C4.30833 11.5625 3.4 11.9 2.5 12.35C2.35 12.4333 2.22917 12.55 2.1375 12.7C2.04583 12.85 2 13.0166 2 13.2V14ZM8 5.99997C8.55 5.99997 9.02083 5.80414 9.4125 5.41247C9.80417 5.0208 10 4.54997 10 3.99997C10 3.44997 9.80417 2.97914 9.4125 2.58747C9.02083 2.1958 8.55 1.99997 8 1.99997C7.45 1.99997 6.97917 2.1958 6.5875 2.58747C6.19583 2.97914 6 3.44997 6 3.99997C6 4.54997 6.19583 5.0208 6.5875 5.41247C6.97917 5.80414 7.45 5.99997 8 5.99997Z" fill="white" fill-opacity="0.3"/>
</svg>
