<svg width="24" height="25" viewBox="0 0 24 25" fill="none" xmlns="http://www.w3.org/2000/svg">
<path d="M4.5542 18.5177C5.5586 17.7507 6.68116 17.146 7.92188 16.7035C9.1626 16.261 10.4624 16.0397 11.8213 16.0397C13.1802 16.0397 14.48 16.261 15.7207 16.7035C16.9614 17.146 18.084 17.7507 19.0884 18.5177C19.7777 17.7114 20.3143 16.7969 20.6984 15.7742C21.0824 14.7515 21.2744 13.66 21.2744 12.4997C21.2744 9.88404 20.3537 7.65679 18.5123 5.81796C16.6709 3.97912 14.4406 3.05971 11.8213 3.05971C9.20199 3.05971 6.97164 3.97912 5.13025 5.81796C3.28886 7.65679 2.36817 9.88404 2.36817 12.4997C2.36817 13.66 2.56018 14.7515 2.94422 15.7742C3.32825 16.7969 3.86491 17.7114 4.5542 18.5177ZM11.8213 13.6797C10.6593 13.6797 9.67957 13.2815 8.88196 12.485C8.08435 11.6885 7.68555 10.71 7.68555 9.54971C7.68555 8.38937 8.08435 7.41096 8.88196 6.61446C9.67957 5.81796 10.6593 5.41971 11.8213 5.41971C12.9832 5.41971 13.963 5.81796 14.7606 6.61446C15.5582 7.41096 15.957 8.38937 15.957 9.54971C15.957 10.71 15.5582 11.6885 14.7606 12.485C13.963 13.2815 12.9832 13.6797 11.8213 13.6797ZM11.8213 24.2997C10.1867 24.2997 8.65056 23.99 7.21289 23.3705C5.77523 22.751 4.52466 21.9102 3.46118 20.8482C2.39771 19.7862 1.55579 18.5374 0.935425 17.1017C0.315064 15.666 0.00488281 14.132 0.00488281 12.4997C0.00488281 10.8674 0.315064 9.33337 0.935425 7.89771C1.55579 6.46204 2.39771 5.21321 3.46118 4.15121C4.52466 3.08921 5.77523 2.24846 7.21289 1.62896C8.65056 1.00946 10.1867 0.699707 11.8213 0.699707C13.4559 0.699707 14.992 1.00946 16.4297 1.62896C17.8674 2.24846 19.1179 3.08921 20.1814 4.15121C21.2449 5.21321 22.0868 6.46204 22.7072 7.89771C23.3275 9.33337 23.6377 10.8674 23.6377 12.4997C23.6377 14.132 23.3275 15.666 22.7072 17.1017C22.0868 18.5374 21.2449 19.7862 20.1814 20.8482C19.1179 21.9102 17.8674 22.751 16.4297 23.3705C14.992 23.99 13.4559 24.2997 11.8213 24.2997Z" fill="#1D1D1D"/>
</svg>
