<svg id="youtrack" width="27" height="27" viewBox="0 0 27 27" fill="none" xmlns="http://www.w3.org/2000/svg">
<g clip-path="url(#clip0_1266_1584)">
<path d="M25.8052 18.3214C25.7281 18.2443 20.7524 13.4614 20.7524 13.4614C20.7524 13.4614 24.5324 9.45 25.5352 8.44714C25.8438 8.13857 26.1138 7.83 26.3067 7.44429C27.6952 5.09143 26.8852 2.08286 24.5324 0.694286C22.7967 -0.308571 20.6367 -0.154285 19.0938 1.00286C18.8238 1.19571 18.5924 1.38857 18.3609 1.62C18.2452 1.77429 12.9995 6.55714 8.44809 10.7229L16.9724 16.1229L8.02381 26.19C7.48381 26.5757 6.94381 26.8071 6.36523 26.9229C6.48095 26.9229 6.55809 26.9229 6.67381 26.8843C8.44809 26.6143 23.6067 24.0686 24.3395 23.9143C25.2267 23.76 26.0367 23.22 26.5381 22.41C27.3867 21.0214 27.001 19.2857 25.8052 18.3214Z" fill="url(#paint0_linear_1266_1584)"/>
<path d="M17.7048 11.7643C17.5505 10.7229 17.0105 9.87428 16.239 9.25714C15.429 8.64 9.18048 2.16 8.48619 1.42714C7.40619 0.38571 5.86334 -0.192862 4.28191 0.0771384C1.58191 0.462853 -0.308092 3.00857 0.116194 5.70857C0.309051 7.05857 1.08048 8.21571 2.08334 8.94857C3.08619 9.72 10.9548 15.12 11.4562 15.5057C12.2662 16.1229 13.3462 16.47 14.4262 16.2771C16.5476 15.8914 18.0519 13.8857 17.7048 11.7643Z" fill="url(#paint1_linear_1266_1584)"/>
<path d="M8.8719 26.1514C8.91048 26.1514 17.859 16.0843 17.859 16.0843L8.83333 10.3757C5.6319 13.3071 2.6619 15.9686 1.96762 16.6243C1.54333 17.01 1.11905 17.5114 0.810475 18.0514C-0.848096 20.9057 0.11619 24.5314 2.97048 26.19C4.12762 26.8457 6.75048 27.6557 8.8719 26.1514Z" fill="url(#paint2_linear_1266_1584)"/>
<path d="M21.8318 5.16856H5.16895V21.8314H21.8318V5.16856Z" fill="black"/>
<path d="M12.9605 18.7071H6.71191V19.7486H12.9605V18.7071Z" fill="white"/>
<path d="M9.18047 11.5328L6.55762 7.36713H8.3319L9.9519 10.1057L11.649 7.36713H13.3848L10.7233 11.4943V14.2714H9.18047V11.5328Z" fill="white"/>
<path d="M16.0462 8.7557H13.9248V7.36713H19.6719V8.7557H17.5505V14.2714H16.0462V8.7557Z" fill="white"/>
</g>
<defs>
<linearGradient id="paint0_linear_1266_1584" x1="2.73296" y1="21.1189" x2="24.7275" y2="11.0929" gradientUnits="userSpaceOnUse">
<stop stop-color="#905CFB"/>
<stop offset="0.1649" stop-color="#6677F8"/>
<stop offset="0.3776" stop-color="#3596F5"/>
<stop offset="0.5401" stop-color="#17A9F3"/>
<stop offset="0.6317" stop-color="#0CB0F2"/>
</linearGradient>
<linearGradient id="paint1_linear_1266_1584" x1="11.6915" y1="10.8505" x2="0.412383" y2="0.888259" gradientUnits="userSpaceOnUse">
<stop stop-color="#905CFB"/>
<stop offset="0.0717604" stop-color="#A554E6"/>
<stop offset="0.2523" stop-color="#D641B5"/>
<stop offset="0.3901" stop-color="#F43597"/>
<stop offset="0.4677" stop-color="#FF318C"/>
</linearGradient>
<linearGradient id="paint2_linear_1266_1584" x1="1.92245" y1="22.6358" x2="28.5521" y2="5.85641" gradientUnits="userSpaceOnUse">
<stop stop-color="#905CFB"/>
<stop offset="0.1649" stop-color="#6677F8"/>
<stop offset="0.3776" stop-color="#3596F5"/>
<stop offset="0.5401" stop-color="#17A9F3"/>
<stop offset="0.6317" stop-color="#0CB0F2"/>
</linearGradient>
<clipPath id="clip0_1266_1584">
<rect width="27" height="27" fill="white"/>
</clipPath>
</defs>
</svg>
